<?xml version="1.0" encoding="utf-8"?>
<!-- Generator: Adobe Illustrator 27.1.1, SVG Export Plug-In . SVG Version: 6.00 Build 0)  -->
<svg version="1.1" id="white" xmlns="http://www.w3.org/2000/svg" xmlns:xlink="http://www.w3.org/1999/xlink" x="0px" y="0px"
	 viewBox="0 0 2974.2 1551.7" style="enable-background:new 0 0 2974.2 1551.7;" xml:space="preserve">
<style type="text/css">
	.st0{clip-path:url(#SVGID_00000045591332341897969640000011663083023049740164_);}
	.st1{clip-path:url(#SVGID_00000112611960854006181530000003220435043960980371_);}
	.st2{fill:#ED2524;}
	.st3{fill:#FFFFFF;}
</style>
<g>
	<defs>
		<rect id="SVGID_1_" x="11.1" y="114.8" width="2737.5" height="1310.8"/>
	</defs>
	<clipPath id="SVGID_00000182513633264589196840000013323771969532474538_">
		<use xlink:href="#SVGID_1_"  style="overflow:visible;"/>
	</clipPath>
	<g style="clip-path:url(#SVGID_00000182513633264589196840000013323771969532474538_);">
		<defs>
			<rect id="SVGID_00000083049830244678593750000010211468367205054373_" x="-264.2" y="-119" width="3273.3" height="1789.8"/>
		</defs>
		<clipPath id="SVGID_00000142877830632220318030000014598123365220070807_">
			<use xlink:href="#SVGID_00000083049830244678593750000010211468367205054373_"  style="overflow:visible;"/>
		</clipPath>
		<g style="clip-path:url(#SVGID_00000142877830632220318030000014598123365220070807_);">
			<g>
				<path class="st2" d="M748.9,224.6c0,34.1-27.6,61.7-61.7,61.7c-34.1,0-61.7-27.6-61.7-61.7c0-34.1,27.6-61.7,61.7-61.7
					C721.3,162.9,748.9,190.5,748.9,224.6L748.9,224.6L748.9,224.6z"/>
				<g>
					<path class="st3" d="M519.5,315.9c-26.7,0-56.7,11.1-71.1,42.9h-4V174.6h-94V918h95V430.9c0-15.8,4.2-34.2,28.2-34.2
						c21.6,0,26.3,14.9,26.3,35.2V918h95V411.7C594.9,349.1,584.5,315.9,519.5,315.9z"/>
					<rect x="640" y="323.5" class="st3" width="94.4" height="595.1"/>
					<path class="st3" d="M947.2,317.2c-28.6,0-58.2,14.7-71.2,42h-3.9v-35h-94.1v595h93.9V436.9c0-16.7,1.3-38.9,30.5-38.9
						c21.9,0,25.1,19.9,25.1,38.9v482.2h95.1V422.2C1022.6,359.6,1023.4,317.2,947.2,317.2z"/>
					<polygon class="st3" points="1320.7,323.2 1225.6,323.2 1171.2,597.3 1162.1,597.3 1162.1,175.4 1067.3,175.4 1067.3,918 
						1162.1,918 1162.1,603.8 1171.2,603.8 1226.6,918 1323.8,918 1263.6,592.2 					"/>
					<polygon class="st3" points="33.1,271.3 130,271.3 130,918 234.6,918 234.6,271.3 330.4,271.3 330.4,178.3 33.1,178.3 					"/>
					<path class="st3" d="M1470.8,176.6l-106.5,0v746.5h106.5V597.1c109.8,0,141.4-51,141.4-114.4V291
						C1612.2,227.6,1580.6,176.6,1470.8,176.6z M1513.6,482.7c0,15.9-13.2,30.6-42.8,30.6V260.4c29.6,0,42.8,14.6,42.8,30.6V482.7z"
						/>
					<path class="st3" d="M1812.9,318.1c-16.8,0-31,4.3-42.5,12.8c-11.5,8.5-20.6,21.7-27.2,39.4h-2V176.9h-97.4V918h97.4V434.2
						c0-11.7,1.7-20.3,5.2-25.6c3.5-5.4,9.2-8,17.1-8c7.6,0,13.2,2.6,16.8,7.8c3.6,5.2,5.4,13.8,5.4,25.9V918h96V422.1
						c0-39.5-5.2-66.7-15.6-81.6C1855.6,325.6,1837.9,318.1,1812.9,318.1z"/>
					<path class="st3" d="M2038.8,315.1c-40.2,0-70.4,9.6-90.5,28.9c-20.1,19.3-30.2,48-30.2,86.2V813c0,38.2,10.1,66.7,30.2,85.7
						c20.1,18.9,50.3,28.4,90.5,28.4c39.9,0,69.9-9.5,90-28.4c20.1-18.9,30.2-47.5,30.2-85.7V430.2c0-38.2-10.1-66.9-30.2-86.2
						C2108.7,324.7,2078.7,315.1,2038.8,315.1z M2061,822.6c0,12.1-1.8,20.7-5.4,25.9c-3.6,5.2-9.2,7.8-16.8,7.8
						c-7.9,0-13.6-2.7-17.1-8c-3.5-5.4-5.2-13.9-5.2-25.6V420.1c0-12.1,1.7-20.6,5.2-25.6c3.5-5,9.2-7.5,17.1-7.5s13.6,2.6,17.1,7.8
						c3.5,5.2,5.2,13.7,5.2,25.4V822.6z"/>
					<path class="st3" d="M2365.6,318.1c-16.5,0-30.6,4.2-42.3,12.6c-11.7,8.4-21.5,21.6-29.4,39.7h-2v-45.2h-95.5V918h97.4V434.2
						c0-11.7,1.7-20.3,5.2-25.6c3.5-5.4,9.2-8,17.1-8c7.6,0,13.2,2.6,16.8,7.8c3.6,5.2,5.4,13.8,5.4,25.9V918h96V422.1
						c0-39.5-5.2-66.7-15.6-81.6C2408.4,325.6,2390.7,318.1,2365.6,318.1z"/>
					<path class="st3" d="M2711.7,636.2v-206c0-38.2-10.1-66.9-30.2-86.2c-20.1-19.3-50.1-28.9-90-28.9c-40.2,0-70.4,9.6-90.5,28.9
						c-20.1,19.3-30.2,48-30.2,86.2V813c0,38.2,10.1,66.7,30.2,85.7c20.1,18.9,50.3,28.4,90.5,28.4c39.9,0,69.9-9.5,90-28.4
						c20.1-18.9,30.2-47.5,30.2-85.7V683.4h-97.9v139.2c0,12.1-1.8,20.7-5.4,25.9c-3.6,5.2-9.2,7.8-16.8,7.8c-7.9,0-13.6-2.7-17.1-8
						c-3.5-5.4-5.2-13.9-5.2-25.6V636.2H2711.7z M2569.3,420.1c0-12.1,1.7-20.6,5.2-25.6c3.5-5,9.2-7.5,17.1-7.5
						c7.9,0,13.6,2.6,17.1,7.8c3.5,5.2,5.2,13.7,5.2,25.4v145.2h-44.5V420.1z"/>
				</g>
			</g>
			<g>
				<path class="st3" d="M1216.2,1228.6V1146h51.7v-40h-51.7v-52.4h-40v175c0.1,46.1,37.4,83.4,83.5,83.5h8.5v-40h-8.5
					C1235.7,1272.1,1216.2,1252.6,1216.2,1228.6z"/>
				<path class="st3" d="M1744.6,1102.1L1744.6,1102.1c-59,0-106.9,47.8-106.8,106.8c0,59,47.8,106.8,106.8,106.8
					c59,0,106.8-47.8,106.8-106.8c0,0,0,0,0,0C1851.4,1150,1803.6,1102.2,1744.6,1102.1z M1744.6,1275.8
					c-36.9,0-66.8-29.9-66.8-66.8c0-36.9,29.9-66.8,66.8-66.8s66.8,29.9,66.8,66.8C1811.4,1245.8,1781.1,1275.8,1744.6,1275.8z"/>
				<path class="st3" d="M2052.4,1102.3c-59,0-106.9,47.7-106.9,106.8c0,59,47.7,106.9,106.8,106.9c25.1,0,49.4-8.8,68.6-24.9v21.1
					h38.3v-100c0-1,0.1-2.1,0.1-3.1C2159.2,1150.1,2111.4,1102.3,2052.4,1102.3z M2052.4,1275.9c-36.9,0-66.8-29.9-66.8-66.8
					c0-36.9,29.9-66.8,66.8-66.8c36.9,0,66.8,29.9,66.8,66.8C2119.2,1246,2089,1275.9,2052.4,1275.9z"/>
				<path class="st3" d="M1521.9,1189.5v122.4h40v-122.4c0-24,19.5-43.4,43.4-43.5h19v-40h-19
					C1559.3,1106.1,1522,1143.4,1521.9,1189.5z"/>
				<rect x="1878.2" y="1053.8" class="st3" width="40.1" height="262.1"/>
				<path class="st3" d="M879.6,1121.7c-35.1-30-87.9-25.8-117.9,9.3c-15.9-18.6-39.2-29.3-63.7-29.3c-45.7,0-83.2,37.5-83.2,83.5
					v127h40v-127c0-0.4,0-0.8,0-1.2c0.3-24,20.1-43.2,44.1-42.9c24,0.3,43.2,20.1,42.9,44.1v127H782v-127c0-24,19.5-43.5,43.5-43.5
					c24,0,43.5,19.5,43.5,43.5v127h40v-127C908.9,1160.7,898.2,1137.5,879.6,1121.7z"/>
				<path class="st3" d="M1042.9,1102.2L1042.9,1102.2c-59.2,0-107.1,47.9-107.1,106.8c0,59,47.8,106.8,106.8,106.8
					c59,0,106.8-47.8,106.8-106.8C1149.7,1150.1,1101.8,1102.2,1042.9,1102.2z M1042.9,1275.8c-36.9,0-66.8-29.9-66.8-66.8
					c0-36.9,29.9-66.8,66.8-66.8c36.9,0,66.8,29.9,66.8,66.8C1109.7,1245.9,1079.4,1275.8,1042.9,1275.8z"/>
				<path class="st3" d="M1388.3,1102.2L1388.3,1102.2c-59,0-106.9,47.9-106.8,106.9s47.9,106.8,106.9,106.8
					c59,0,106.8-47.9,106.8-106.8C1495,1150,1447.2,1102.2,1388.3,1102.2z M1388.3,1275.8c-36.9,0-66.8-29.9-66.8-66.8
					c0-36.9,29.9-66.8,66.8-66.8c36.9,0,66.8,29.9,66.8,66.8C1455.1,1245.9,1424.8,1275.8,1388.3,1275.8z"/>
			</g>
			<g>
				<path class="st3" d="M232.4,1127.1c-15.9,0-30.3,4.2-43.1,12.4c-6.6,4.3-12.7,9.5-18.4,16v-96.6h-36.8v257.2H171v-23.4
					c16.6,18,37.2,27.1,61.4,27.1c22.7,0,45.1-9.3,61.3-25.6c12.5-12.5,27.4-34.9,27.4-70.6v-0.7c0-35.8-15-58.1-27.6-70.6
					C277.3,1136.3,255,1127.1,232.4,1127.1z M283.7,1223.3v0.7c0,36.4-23,61.8-56,61.8c-28.4,0-57.7-23.2-57.7-62.1v-0.7
					c0-38.1,30-61.8,57.7-61.8C260.1,1161.2,283.7,1187.3,283.7,1223.3z"/>
				<path class="st3" d="M465.3,1130.8l-52.6,136.6L353,1130.8h-40.6l81.8,179.3c-10,22.7-18.6,27.3-29.9,27.3
					c-9.8,0-16.8-1.6-24.8-5.8l-5.2-2.7l-13.1,30.7l4.6,2.2c13.6,6.6,25.1,9.3,39.5,9.3c29.4,0,47.7-15.2,63.1-52.6l76.3-187.7
					H465.3z"/>
			</g>
		</g>
	</g>
</g>
</svg>
